<?xml version="1.0" encoding="UTF-8"?>
<svg id="Layer_2" data-name="Layer 2" xmlns="http://www.w3.org/2000/svg" viewBox="0 0 957.67 1028.33">
  <g id="_Layer_" data-name="&amp;lt;Layer&amp;gt;">
    <g>
      <path d="M210.5,932.5c1.37,1.07,2.27,1.49,2.27,1.49,0,0-.84-.54-2.27-1.49Z"/>
      <path d="M597.76,301.99c32.81-6.75,114.34-1.93,198.29,51.62,83.95,53.55,83.95,57.41,106.62,73.33,22.67,15.92,44.38,60.31,44.38,60.31,0,0,22.19-66.58,2.41-149.08-19.78-82.5-30.88-103.24-94.56-121.58-63.68-18.33-118.2-10.61-163.55-10.61s-80.57-4.82-70.44-15.44c10.13-10.61,82.22-29.38,150.52-35.7,92.51-8.56,155.35,45.35,155.35,45.35,0,0-1.45-88.77-47.76-122.06-46.31-33.29-103.25-40.36-151.97-59.02-48.73-18.66-136.05-31.52-182.36,0-46.31,31.52-61.7,64.33-64.86,94.72-2.82,27.13-.06,76.53-6.98,87.17h.03s.53,2.24,1.27,5.84c2.4-1.44,6.88-4.14,13.1-7.87,4.76-2.97,10.81-6.18,17.63-10.03,1.71-.96,3.48-1.94,5.29-2.96,1.82-1.01,3.74-1.96,5.68-2.98,3.9-2.02,8-4.15,12.28-6.37,4.28-2.22,8.85-4.29,13.52-6.57,2.34-1.12,4.72-2.27,7.14-3.43,2.45-1.09,4.94-2.2,7.46-3.32,10.05-4.58,20.83-8.98,32.03-13.4,5.65-2.09,11.36-4.29,17.19-6.39,5.87-1.98,11.78-4.07,17.79-6.03,6.05-1.84,12.1-3.83,18.25-5.59,3.08-.86,6.16-1.73,9.25-2.59l4.63-1.3,4.67-1.18c6.23-1.55,12.44-3.19,18.7-4.51,3.12-.7,6.24-1.39,9.34-2.08,3.12-.61,6.23-1.22,9.33-1.83,12.4-2.46,24.7-4.35,36.62-5.97,5.98-.69,11.84-1.51,17.61-2.01,2.88-.28,5.73-.55,8.55-.82,2.82-.21,5.61-.42,8.36-.62,2.75-.23,5.46-.37,8.14-.51,2.68-.14,5.31-.27,7.9-.4,5.19-.15,10.19-.37,15.01-.38,9.62-.16,18.45.06,26.26.37,7.81.3,14.61.85,20.2,1.34,11.18,1.05,17.5,2.21,17.5,2.21,0,0-6.33-1.11-17.51-2.08-5.59-.45-12.39-.95-20.2-1.2-7.81-.25-16.62-.41-26.24-.18-4.81.04-9.81.3-14.99.48-2.59.15-5.22.3-7.89.46-2.67.15-5.38.32-8.13.56-2.74.22-5.53.45-8.34.68-2.81.29-5.66.58-8.53.88-5.76.54-11.61,1.39-17.57,2.13-11.89,1.7-24.16,3.67-36.52,6.21-3.09.63-6.19,1.26-9.3,1.89-3.09.71-6.2,1.43-9.3,2.15-6.24,1.36-12.42,3.04-18.63,4.63l-4.65,1.21-4.61,1.33c-3.08.88-6.15,1.77-9.21,2.65-6.12,1.8-12.15,3.82-18.17,5.7-5.98,1.99-11.87,4.12-17.7,6.14-5.8,2.13-11.48,4.36-17.1,6.49-11.14,4.49-21.85,8.95-31.83,13.59-2.51,1.14-4.98,2.26-7.41,3.36-2.4,1.17-4.77,2.33-7.09,3.47-4.64,2.3-9.18,4.4-13.42,6.64-4.25,2.24-8.32,4.39-12.19,6.43-1.93,1.03-3.84,1.99-5.64,3.01-1.8,1.02-3.55,2.02-5.24,2.98-6.76,3.89-12.73,7.1-17.48,10.11-7.05,4.3-11.87,7.24-13.92,8.5,1.69,8.58,3.92,21.84,4.07,32.51.08,0,6.67,0,18.15-.02,5.77-.08,12.81.15,20.88.33,4.03.13,8.33.11,12.85.38,4.52.21,9.27.44,14.22.67,4.96.18,10.11.58,15.45.96,2.67.19,5.38.38,8.14.58,2.75.18,5.55.4,8.38.69,5.66.54,11.47,1.09,17.41,1.66,5.92.7,11.98,1.42,18.14,2.15,12.3,1.6,24.98,3.44,37.81,5.67,12.83,2.2,25.8,4.78,38.72,7.62,6.46,1.42,12.87,3.02,19.28,4.52,6.37,1.68,12.73,3.26,19,5.01,6.25,1.8,12.49,3.48,18.57,5.41,3.05.94,6.07,1.87,9.08,2.8,2.99.99,5.95,1.97,8.89,2.94,5.9,1.89,11.61,4.03,17.24,6,5.58,2.1,11.06,4.1,16.33,6.22,10.58,4.14,20.41,8.45,29.44,12.53,8.99,4.18,17.15,8.17,24.27,11.92,7.11,3.76,13.25,7.18,18.21,10.14,9.95,5.89,15.3,9.77,15.3,9.77,0,0-5.39-3.83-15.39-9.61-4.99-2.9-11.15-6.26-18.3-9.94-7.16-3.67-15.35-7.58-24.37-11.66-9.06-3.98-18.93-8.19-29.53-12.21-5.28-2.06-10.77-4-16.36-6.04-5.64-1.9-11.36-3.98-17.27-5.81-2.95-.94-5.91-1.89-8.91-2.85-3.01-.89-6.04-1.79-9.09-2.7-6.08-1.87-12.32-3.47-18.58-5.21-6.27-1.68-12.64-3.2-19-4.81-6.41-1.43-12.83-2.96-19.28-4.31-12.91-2.7-25.87-5.14-38.68-7.2-12.81-2.09-25.47-3.79-37.74-5.26-6.15-.66-12.19-1.32-18.1-1.96-5.93-.5-11.73-.99-17.37-1.47-2.82-.26-5.61-.45-8.35-.6-2.75-.17-5.45-.33-8.11-.49-5.32-.32-10.46-.67-15.4-.8-4.94-.18-9.67-.36-14.17-.52-4.5-.22-8.77-.16-12.78-.24-8.02-.1-15.01-.25-20.79-.11-11.55.13-18.16.2-18.16.2v-2.17c-.19,12.27-5.29,39.94-10.48,73.5,3.08,1.01,7.22,2.36,12.31,4.02,5.95,1.87,13.13,4.48,21.38,7.35,8.28,2.81,17.46,6.35,27.53,10.1,5.05,1.83,10.21,4,15.59,6.11,5.37,2.15,10.96,4.31,16.6,6.75,5.66,2.41,11.5,4.81,17.42,7.4,5.9,2.63,11.92,5.32,18.05,8.06,6.07,2.85,12.25,5.75,18.5,8.68,6.23,2.98,12.46,6.14,18.78,9.24,6.3,3.16,12.56,6.49,18.9,9.76,6.27,3.39,12.56,6.8,18.85,10.21,6.21,3.55,12.46,7.03,18.61,10.62,6.11,3.67,12.28,7.17,18.24,10.92,3,1.85,5.98,3.69,8.95,5.52,2.96,1.84,5.86,3.75,8.77,5.6,5.83,3.69,11.48,7.49,17.06,11.21,5.58,3.72,10.96,7.53,16.26,11.2,5.23,3.78,10.4,7.39,15.31,11.09,9.91,7.26,19.03,14.46,27.39,21.16,8.33,6.75,15.81,13.12,22.35,18.86,6.51,5.78,12.1,10.92,16.61,15.25,9.02,8.65,13.8,13.97,13.8,13.97,0,0-4.86-5.24-14.02-13.75-4.57-4.25-10.24-9.3-16.83-14.97-6.63-5.63-14.2-11.88-22.62-18.48-8.46-6.56-17.67-13.6-27.68-20.69-4.95-3.62-10.17-7.13-15.45-10.82-5.35-3.58-10.78-7.29-16.4-10.91-5.62-3.63-11.32-7.33-17.19-10.92-2.93-1.8-5.85-3.66-8.84-5.45-2.99-1.78-5.99-3.57-9.01-5.37-6-3.65-12.21-7.04-18.35-10.6-6.19-3.49-12.47-6.85-18.71-10.29-6.32-3.3-12.64-6.59-18.94-9.87-6.36-3.15-12.66-6.37-18.98-9.42-6.35-2.99-12.6-6.04-18.85-8.91-6.27-2.82-12.46-5.61-18.55-8.35-6.14-2.62-12.18-5.21-18.09-7.73-5.93-2.48-11.78-4.78-17.45-7.09-5.66-2.34-11.25-4.4-16.63-6.46-5.4-2.02-10.56-4.09-15.61-5.83-10.07-3.57-19.27-6.95-27.51-9.61-8.23-2.72-15.35-5.19-21.36-6.97-4.54-1.4-8.33-2.58-11.29-3.5-1.79,11.87-3.56,24.37-5.09,37.09-2.6,21.64-8.79,58.35-15.58,97.93,2.72,1.93,7.54,5.35,14.11,10.01,2.63,1.91,5.62,3.9,8.74,6.29,3.12,2.4,6.48,4.99,10.09,7.76,3.59,2.78,7.42,5.73,11.45,8.85,3.91,3.26,8.02,6.7,12.3,10.28,2.14,1.79,4.33,3.62,6.56,5.48,2.25,1.85,4.37,3.91,6.62,5.91,4.46,4.04,9.07,8.23,13.8,12.53,4.56,4.49,9.24,9.11,14.02,13.83,1.2,1.18,2.4,2.37,3.6,3.56,1.16,1.24,2.32,2.49,3.49,3.74,2.34,2.51,4.69,5.04,7.07,7.59,1.19,1.28,2.39,2.56,3.58,3.84,1.21,1.27,2.4,2.58,3.53,3.94,2.3,2.69,4.62,5.41,6.96,8.14,2.31,2.75,4.72,5.44,7,8.27,2.24,2.86,4.49,5.73,6.75,8.62,2.24,2.9,4.58,5.74,6.75,8.73,2.15,3,4.3,6.01,6.46,9.02,4.43,5.95,8.39,12.26,12.47,18.48l3.05,4.67,2.84,4.8c1.9,3.2,3.79,6.39,5.67,9.58.97,1.58,1.85,3.21,2.71,4.84l2.62,4.88c1.71,3.26,3.53,6.46,5.15,9.75,1.59,3.3,3.17,6.58,4.75,9.85.78,1.64,1.59,3.26,2.34,4.9.72,1.66,1.43,3.31,2.14,4.96,1.42,3.29,2.84,6.57,4.24,9.82,1.27,3.31,2.53,6.59,3.79,9.84.62,1.63,1.25,3.25,1.87,4.86.56,1.64,1.11,3.27,1.67,4.88,1.1,3.24,2.19,6.46,3.26,9.63.95,3.22,1.9,6.4,2.83,9.54.46,1.57.92,3.13,1.38,4.69.4,1.57.79,3.13,1.19,4.68,3.33,12.34,5.52,24.24,7.29,35.24,1.72,11.02,2.61,21.21,3.18,30.24.49,9.04.5,16.94.33,23.44-.22,6.49-.64,11.58-1.01,15.05-.39,3.46-.7,5.29-.7,5.29,0,0,.3-1.83.66-5.29.33-3.47.7-8.56.87-15.05.1-6.49.03-14.39-.54-23.41-.66-9.01-1.64-19.18-3.45-30.16-1.87-10.96-4.16-22.81-7.59-35.09-.41-1.54-.81-3.09-1.22-4.65-.47-1.55-.94-3.1-1.42-4.67-.96-3.12-1.93-6.29-2.9-9.48-1.1-3.16-2.21-6.35-3.34-9.57-.56-1.61-1.14-3.23-1.7-4.85-.63-1.6-1.27-3.21-1.91-4.83-1.28-3.23-2.56-6.49-3.86-9.77-1.43-3.23-2.87-6.48-4.31-9.75-.72-1.63-1.45-3.27-2.18-4.91-.77-1.63-1.59-3.23-2.38-4.86-1.6-3.24-3.21-6.5-4.82-9.77-1.64-3.26-3.48-6.42-5.22-9.66l-2.65-4.84c-.87-1.62-1.76-3.24-2.74-4.8-1.91-3.16-3.82-6.32-5.74-9.49l-2.87-4.75-3.08-4.63c-4.11-6.16-8.11-12.4-12.57-18.28-2.17-2.98-4.34-5.96-6.51-8.92-2.18-2.95-4.54-5.75-6.79-8.62-2.27-2.85-4.54-5.69-6.79-8.51-2.29-2.8-4.71-5.45-7.04-8.17-2.34-2.69-4.68-5.37-6.99-8.03-1.14-1.35-2.33-2.63-3.55-3.89-1.2-1.27-2.4-2.53-3.6-3.79-2.39-2.52-4.76-5.01-7.11-7.49-1.17-1.23-2.34-2.47-3.5-3.69-1.21-1.18-2.42-2.34-3.62-3.5-4.8-4.65-9.49-9.19-14.07-13.62-4.75-4.23-9.37-8.35-13.84-12.33-2.25-1.97-4.39-4-6.63-5.82-2.24-1.83-4.43-3.63-6.57-5.39-4.29-3.52-8.41-6.9-12.32-10.11-4.03-3.05-7.85-5.95-11.44-8.68-3.59-2.72-6.96-5.26-10.07-7.61-3.12-2.34-6.14-4.32-8.79-6.2-5.43-3.78-9.66-6.73-12.52-8.71-9.26,53.91-19.41,112.21-23.07,144.62,1.97,2,5.62,5.7,10.66,10.8,1.94,2.02,4.2,4.12,6.43,6.68,2.27,2.51,4.73,5.22,7.36,8.11,1.31,1.45,2.67,2.94,4.06,4.48,1.4,1.53,2.84,3.11,4.21,4.82,2.8,3.37,5.75,6.91,8.82,10.61,1.51,1.87,3.16,3.69,4.65,5.7,1.51,1.99,3.06,4.02,4.62,6.08,1.57,2.06,3.16,4.16,4.78,6.29.81,1.06,1.63,2.14,2.45,3.22.8,1.1,1.56,2.23,2.35,3.36,3.14,4.53,6.36,9.18,9.65,13.93,3.08,4.89,6.23,9.89,9.44,14.98.82,1.26,1.59,2.56,2.32,3.88.75,1.32,1.5,2.64,2.26,3.96,1.51,2.65,3.03,5.32,4.56,8.01,1.58,2.66,2.93,5.47,4.37,8.24,1.43,2.78,2.86,5.58,4.3,8.38,1.5,2.78,2.7,5.71,4.06,8.58,1.32,2.88,2.65,5.78,3.98,8.68,1.3,2.91,2.43,5.9,3.66,8.86,1.19,2.97,2.45,5.92,3.58,8.91,4.4,12.03,8.54,24.16,11.69,36.38.79,3.05,1.66,6.07,2.38,9.11.68,3.05,1.36,6.08,2.03,9.1.33,1.51.69,3,.99,4.51.28,1.51.55,3.01.82,4.51.54,3,1.09,5.98,1.62,8.93.43,2.97.85,5.92,1.27,8.83.21,1.46.41,2.91.62,4.36.15,1.45.31,2.89.46,4.33.3,2.87.6,5.71.89,8.52.2,2.82.39,5.6.58,8.34.22,2.74.33,5.45.4,8.12.08,2.67.22,5.3.25,7.88,0,5.18.08,10.18-.14,14.97-.24,9.59-.98,18.37-1.85,26.12-.84,7.75-2,14.45-3.01,19.96-2.11,11-4.08,17.1-4.08,17.1,0,0,1.93-6.11,3.96-17.12.98-5.51,2.09-12.21,2.87-19.96.82-7.74,1.5-16.51,1.66-26.1.18-4.79.06-9.78.03-14.94-.05-2.58-.2-5.21-.3-7.87-.1-2.66-.22-5.37-.46-8.1-.21-2.73-.42-5.51-.64-8.32-.31-2.8-.63-5.63-.95-8.49-.16-1.43-.32-2.87-.49-4.32-.22-1.44-.43-2.89-.65-4.34-.44-2.91-.88-5.84-1.33-8.8-.56-2.94-1.11-5.91-1.68-8.89-.28-1.5-.57-2.99-.85-4.5-.3-1.5-.68-2.99-1.02-4.49-.69-3-1.39-6.02-2.09-9.06-.73-3.03-1.62-6.03-2.43-9.06-3.23-12.15-7.44-24.21-11.91-36.17-1.15-2.97-2.43-5.9-3.64-8.85-1.24-2.93-2.39-5.9-3.71-8.8-1.35-2.88-2.69-5.75-4.03-8.62-1.37-2.85-2.59-5.76-4.1-8.52-1.45-2.78-2.9-5.56-4.34-8.32-1.46-2.75-2.81-5.54-4.41-8.17-1.54-2.66-3.08-5.31-4.6-7.94-.76-1.31-1.52-2.62-2.28-3.93-.74-1.31-1.51-2.6-2.34-3.85-3.22-5.04-6.39-9.99-9.5-14.84-3.31-4.71-6.55-9.31-9.71-13.79-.79-1.12-1.56-2.24-2.36-3.33-.83-1.07-1.65-2.13-2.46-3.19-1.63-2.11-3.23-4.18-4.8-6.23-1.58-2.04-3.12-4.05-4.64-6.02-1.5-1.98-3.15-3.79-4.67-5.64-3.08-3.66-6.04-7.16-8.85-10.5-1.38-1.69-2.82-3.25-4.22-4.76-1.4-1.52-2.75-2.99-4.07-4.42-2.63-2.86-5.09-5.53-7.36-8-2.22-2.51-4.52-4.62-6.47-6.62-3.91-3.91-6.99-6.99-9.11-9.1-6.97,58.42-38.86,198.72-44.56,228.65-5.79,30.39-25.57,175.13-25.57,175.13,0,0,.97-46.8,6.75-63.68,5.79-16.88,11.1-113.37,29.91-186.22,12.91-49.98,24-147.9,32.81-226.1-2.65,1.4-6.06,3.2-10.13,5.35-5.41,2.7-11.62,6.51-18.85,10.72-7.31,4.07-15.15,9.36-23.83,14.94-1.08.7-2.17,1.41-3.28,2.12-1.09.74-2.16,1.53-3.25,2.3-2.18,1.56-4.41,3.14-6.67,4.76-4.52,3.23-9.26,6.5-13.84,10.23-2.33,1.82-4.68,3.67-7.07,5.54-2.37,1.89-4.85,3.71-7.16,5.78-4.69,4.05-9.54,8.14-14.38,12.4-4.69,4.42-9.47,8.91-14.3,13.46-4.61,4.77-9.34,9.54-14,14.44-2.25,2.53-4.51,5.06-6.78,7.61l-3.41,3.82-1.71,1.91-1.63,1.99c-2.17,2.65-4.34,5.31-6.51,7.97l-3.26,3.99-3.1,4.12-6.18,8.26-1.54,2.06-1.46,2.12-2.91,4.24c-1.92,2.83-3.9,5.62-5.77,8.48-1.81,2.89-3.62,5.77-5.42,8.63-.9,1.44-1.8,2.87-2.69,4.29-.84,1.46-1.68,2.92-2.52,4.37-1.67,2.91-3.34,5.81-4.99,8.69-1.61,2.9-3.09,5.85-4.63,8.74-1.52,2.9-3.07,5.76-4.42,8.7-1.39,2.91-2.78,5.8-4.15,8.65-1.37,2.86-2.55,5.77-3.81,8.61-2.57,5.66-4.7,11.35-6.9,16.84-4.11,11.09-7.76,21.68-10.51,31.64-.36,1.24-.72,2.47-1.07,3.68-.32,1.22-.63,2.43-.94,3.63-.62,2.39-1.22,4.73-1.81,7.01-1.04,4.59-2.11,8.93-2.9,13.05-1.72,8.22-2.83,15.46-3.64,21.43-.83,5.97-1.2,10.7-1.46,13.92-.23,3.22-.26,4.94-.26,4.94,0,0,.02-1.72.23-4.95.24-3.22.58-7.95,1.37-13.93.77-5.98,1.84-13.23,3.5-21.46.76-4.13,1.8-8.48,2.81-13.08.57-2.29,1.16-4.63,1.76-7.03.3-1.2.61-2.41.92-3.64.34-1.22.69-2.45,1.05-3.69,2.69-9.99,6.27-20.61,10.32-31.75,2.17-5.51,4.26-11.24,6.8-16.92,1.25-2.85,2.42-5.77,3.77-8.65,1.35-2.88,2.72-5.77,4.1-8.7,1.33-2.95,2.87-5.82,4.37-8.75,1.52-2.91,3-5.87,4.59-8.8,1.64-2.9,3.29-5.81,4.95-8.74.83-1.46,1.66-2.93,2.5-4.4.89-1.44,1.78-2.88,2.68-4.32,1.79-2.89,3.58-5.79,5.38-8.7,1.85-2.88,3.82-5.69,5.73-8.54l2.89-4.28,1.45-2.14,1.53-2.08,6.15-8.33,3.09-4.16,3.25-4.03c2.16-2.68,4.33-5.37,6.48-8.04l1.62-2,1.7-1.93,3.39-3.86c2.26-2.57,4.51-5.13,6.76-7.68,4.65-4.96,9.36-9.78,13.97-14.59,4.82-4.6,9.58-9.14,14.27-13.61,4.82-4.31,9.67-8.45,14.36-12.55,2.31-2.09,4.78-3.94,7.15-5.85,2.38-1.89,4.74-3.76,7.06-5.61,4.58-3.78,9.31-7.09,13.84-10.37,2.26-1.64,4.49-3.24,6.67-4.82,1.1-.78,2.17-1.58,3.25-2.33,1.1-.73,2.2-1.44,3.28-2.15,8.67-5.66,16.52-11.03,23.86-15.18,7.26-4.28,13.51-8.17,18.88-10.9,5.01-2.69,8.99-4.82,11.82-6.34,3.3-29.29,6.27-55.62,8.89-75.38-1.75.54-3.85,1.19-6.26,1.97-3.88,1.23-8.59,2.79-13.96,4.64-5.37,1.84-11.4,4.02-17.95,6.5-6.53,2.5-13.59,5.26-20.97,8.4-7.38,3.12-15.12,6.55-23.03,10.28-15.83,7.45-32.38,16.13-48.45,25.64-16.09,9.48-31.67,19.81-45.78,30.19-14.11,10.38-26.74,20.8-37.12,30.22-10.39,9.42-18.54,17.81-23.95,23.95-2.71,3.07-4.73,5.56-6.03,7.33-1.32,1.75-1.84,2.83-1.71,2.86-.13-.03.38-1.12,1.67-2.89,1.28-1.79,3.27-4.31,5.93-7.42,5.32-6.22,13.36-14.74,23.63-24.33,10.26-9.59,22.76-20.22,36.75-30.83,13.99-10.61,29.48-21.2,45.49-30.95,15.99-9.77,32.48-18.74,48.28-26.45,7.9-3.86,15.62-7.42,22.99-10.66,7.37-3.26,14.43-6.14,20.96-8.75,6.54-2.58,12.58-4.87,17.96-6.8,5.38-1.94,10.08-3.58,13.99-4.88,3.39-1.15,6.14-2.03,8.18-2.69.24-1.71.47-3.38.7-4.98,3-20.81,6.04-44.5,8.95-69.9-3.04.63-6.87,1.43-11.41,2.38-6.29,1.17-13.7,3.18-22.27,5.33-2.14.54-4.35,1.1-6.62,1.68-1.13.3-2.29.56-3.46.89-1.16.35-2.33.7-3.52,1.05-4.75,1.42-9.75,2.92-14.96,4.48-5.25,1.46-10.56,3.46-16.11,5.36-5.53,1.97-11.32,3.79-17.08,6.21-5.78,2.34-11.79,4.59-17.81,7.17-5.98,2.68-12.08,5.42-18.29,8.21-6.08,3.05-12.27,6.15-18.53,9.3-6.16,3.33-12.32,6.85-18.57,10.31-6.1,3.72-12.25,7.48-18.37,11.33-3,2.03-6,4.05-9.01,6.09-2.99,2.05-6.07,4-8.95,6.21l-8.76,6.47c-1.45,1.09-2.94,2.12-4.35,3.26l-4.23,3.4c-2.82,2.27-5.64,4.53-8.45,6.78-2.75,2.32-5.43,4.71-8.14,7.05-5.48,4.61-10.55,9.58-15.67,14.36l-1.91,1.8-1.84,1.86c-1.22,1.24-2.44,2.48-3.66,3.71-2.4,2.49-4.89,4.86-7.18,7.39-4.59,5.04-9.2,9.91-13.38,14.97-2.11,2.52-4.28,4.92-6.27,7.44-2,2.51-3.97,4.99-5.91,7.43-7.64,9.89-14.55,19.49-20.43,28.69-3.04,4.53-5.67,9.06-8.29,13.28-2.46,4.32-4.89,8.37-6.94,12.3-4.27,7.78-7.6,14.76-10.26,20.55-2.65,5.79-4.48,10.45-5.72,13.63-1.21,3.19-1.77,4.92-1.77,4.92,0,0,.54-1.74,1.72-4.94,1.21-3.19,3-7.87,5.6-13.69,2.6-5.81,5.87-12.84,10.07-20.66,2.02-3.96,4.42-8.03,6.84-12.38,2.58-4.26,5.17-8.82,8.17-13.39,5.8-9.27,12.64-18.95,20.2-28.94,1.93-2.47,3.88-4.97,5.86-7.5,1.97-2.54,4.12-4.98,6.22-7.52,4.14-5.11,8.73-10.04,13.28-15.14,2.27-2.56,4.74-4.96,7.13-7.48,1.21-1.25,2.42-2.5,3.63-3.76l1.83-1.89,1.9-1.82c5.1-4.85,10.14-9.89,15.6-14.57,2.69-2.37,5.36-4.8,8.11-7.15,2.8-2.29,5.6-4.59,8.42-6.89l4.22-3.46c1.4-1.16,2.89-2.21,4.34-3.32l8.74-6.58c2.88-2.25,5.94-4.23,8.93-6.33,3-2.07,6-4.14,8.99-6.2,6.12-3.93,12.26-7.77,18.37-11.56,6.25-3.54,12.41-7.13,18.58-10.54,6.27-3.22,12.46-6.4,18.55-9.52,6.22-2.86,12.34-5.68,18.32-8.43,6.03-2.65,12.05-4.97,17.85-7.38,5.77-2.49,11.58-4.38,17.13-6.41,5.57-1.96,10.9-4.03,16.16-5.54,5.23-1.62,10.25-3.17,15.02-4.65,1.19-.37,2.37-.73,3.53-1.09,1.17-.34,2.33-.62,3.48-.93,2.29-.6,4.52-1.19,6.67-1.75,8.62-2.25,16.13-4.35,22.37-5.57,5.27-1.15,9.56-2.09,12.79-2.79,3.52-31.1,6.84-64.62,9.65-98.48-1.74-.02-8.65-.08-19.59-.17-6.37-.03-14.13-.22-22.97.02-4.43.08-9.14.16-14.1.24-4.96.09-10.19.13-15.63.43-5.45.24-11.12.5-17,.76-2.94.15-5.93.23-8.95.44-3.03.22-6.1.45-9.22.68-6.23.47-12.63.95-19.18,1.44-6.52.68-13.19,1.37-19.97,2.07-6.79.6-13.64,1.7-20.59,2.6-3.48.47-6.97.95-10.49,1.42-3.5.59-7.01,1.18-10.54,1.77-7.05,1.21-14.19,2.31-21.26,3.87-7.08,1.5-14.25,2.78-21.28,4.62-7.06,1.74-14.16,3.32-21.1,5.41-3.48.99-6.96,1.97-10.43,2.95-3.47.98-6.85,2.19-10.26,3.27-3.4,1.12-6.8,2.17-10.15,3.35-3.32,1.24-6.63,2.46-9.92,3.68-1.65.61-3.28,1.22-4.92,1.83-1.63.62-3.21,1.33-4.81,1.99-3.19,1.34-6.36,2.67-9.5,3.99-12.4,5.63-24.27,11.41-34.95,17.92-1.35.79-2.68,1.58-4.01,2.36-1.32.79-2.58,1.66-3.86,2.48-2.54,1.67-5.06,3.27-7.5,4.92-4.76,3.44-9.43,6.7-13.62,10.19-8.5,6.82-15.86,13.65-21.79,20.25-5.97,6.56-10.67,12.72-14.19,18.03-3.52,5.31-5.81,9.78-7.25,12.88-1.43,3.1-1.98,4.85-1.98,4.85,0,0,.52-1.75,1.92-4.87,1.4-3.11,3.64-7.61,7.1-12.98,3.46-5.36,8.09-11.6,14-18.25,5.87-6.69,13.16-13.64,21.61-20.59,4.17-3.56,8.81-6.88,13.55-10.4,2.42-1.69,4.94-3.33,7.46-5.03,1.27-.84,2.53-1.73,3.84-2.54,1.33-.8,2.66-1.61,4-2.42,10.65-6.67,22.5-12.63,34.89-18.44,3.14-1.36,6.31-2.74,9.5-4.13,1.6-.68,3.18-1.42,4.81-2.06,1.63-.63,3.27-1.26,4.92-1.9,3.29-1.27,6.6-2.54,9.92-3.83,3.35-1.22,6.76-2.32,10.16-3.49,3.41-1.13,6.8-2.38,10.27-3.42,3.47-1.03,6.95-2.06,10.44-3.1,6.95-2.19,14.06-3.86,21.13-5.7,7.05-1.93,14.23-3.31,21.33-4.91,7.09-1.66,14.24-2.85,21.31-4.15,3.54-.64,7.06-1.28,10.57-1.91,3.52-.52,7.03-1.04,10.52-1.56,6.98-.99,13.84-2.18,20.66-2.87,6.8-.79,13.49-1.57,20.04-2.33,6.57-.57,12.99-1.14,19.24-1.68,3.13-.27,6.21-.53,9.25-.79,3.04-.25,6.04-.37,8.98-.55,5.9-.34,11.59-.66,17.06-.98,5.47-.37,10.72-.48,15.71-.63,5-.15,9.73-.29,14.19-.42,8.92-.36,16.65-.26,23.02-.31,12.75-.05,20.04-.07,20.04-.07v.14c1.36-16.81,2.6-33.67,3.66-50.33-1.76-.73-7.93-3.3-17.56-7.32-5.77-2.37-12.77-5.25-20.8-8.56-8.02-3.32-17.13-6.93-27.05-10.9-4.95-2.01-10.16-3.98-15.52-6.08-5.37-2.1-10.92-4.25-16.66-6.38-11.45-4.34-23.58-8.76-36.19-13.12-6.32-2.14-12.72-4.4-19.28-6.44-3.27-1.05-6.56-2.1-9.87-3.16-3.33-.99-6.67-1.98-10.03-2.97-6.7-2.06-13.55-3.76-20.39-5.62-3.43-.87-6.9-1.64-10.35-2.47l-5.19-1.22-5.23-1.04c-3.49-.66-6.96-1.47-10.47-2.01-3.5-.56-7.01-1.12-10.5-1.68-3.52-.42-7.02-.83-10.52-1.25l-2.62-.3-2.63-.18c-1.75-.12-3.5-.24-5.24-.36-13.94-.84-27.79-.42-41.03.91-13.26,1.35-25.97,3.73-37.74,7.04-11.77,3.3-22.54,7.64-32.06,12.46-9.54,4.79-17.71,10.26-24.54,15.61-6.85,5.34-12.22,10.71-16.39,15.34-4.14,4.66-7,8.66-8.84,11.44-1.82,2.8-2.62,4.4-2.62,4.4,0,0,.78-1.61,2.58-4.43,1.81-2.81,4.64-6.83,8.74-11.54,4.13-4.67,9.46-10.11,16.28-15.53,6.8-5.42,14.95-10.99,24.48-15.9,9.51-4.93,20.29-9.39,32.09-12.83,11.8-3.44,24.55-5.96,37.87-7.44,13.34-1.47,27.19-2.02,41.28-1.31,1.76.1,3.52.21,5.28.32l2.65.16,2.64.28c3.52.39,7.06.77,10.6,1.16,3.52.53,7.05,1.06,10.58,1.59,3.54.5,7.03,1.29,10.55,1.92l5.27,1,5.23,1.17c3.48.8,6.97,1.54,10.43,2.38,6.88,1.8,13.79,3.44,20.52,5.45,3.38.97,6.75,1.93,10.1,2.89,3.33,1.03,6.64,2.05,9.93,3.07,6.6,1.98,13.04,4.18,19.4,6.27,12.69,4.25,24.89,8.57,36.4,12.8,5.77,2.07,11.35,4.18,16.75,6.23,5.39,2.05,10.63,3.98,15.6,5.94,9.97,3.88,19.13,7.41,27.19,10.66,8.07,3.23,15.11,6.05,20.9,8.37,7.94,3.22,13.54,5.49,16.27,6.6.28-4.41.54-8.8.79-13.18-1.4-1.6-3.44-3.95-6.02-6.98-5.16-6.05-12.44-14.76-20.94-25.39-8.53-10.61-18.26-23.15-28.8-36.48-10.56-13.31-21.96-27.41-34.48-40.47-6.29-6.5-12.82-12.77-19.71-18.4-6.87-5.67-14.02-10.74-21.36-14.99-7.31-4.29-14.8-7.67-22.05-10.47-7.27-2.75-14.34-4.85-20.94-6.43-13.22-3.15-24.54-4.31-32.45-4.74-7.92-.42-12.46-.13-12.46-.13,0,0,4.53-.34,12.46,0,7.92.35,19.26,1.4,32.55,4.42,6.64,1.52,13.75,3.55,21.08,6.24,7.31,2.74,14.87,6.06,22.28,10.31,7.42,4.19,14.69,9.24,21.65,14.87,6.99,5.6,13.62,11.84,20.01,18.31,12.71,13,24.28,27.03,34.98,40.25,10.68,13.23,20.53,25.67,29.15,36.18,8.6,10.52,15.94,19.14,21.14,25.11,1.6,1.85,2.98,3.41,4.15,4.74.02-.39.05-.78.07-1.16,4.34-83.95-3.38-126.88-62.72-147.63-59.34-20.75-116.27-35.7-141.36-33.77-25.09,1.93-33.77,18.33-27.5,24.12,6.27,5.79,2.89-2.9,20.26,1.93,17.37,4.82,85.39,23.16,84.91,27.5-.48,4.34-23.16-.96-46.8-6.27-23.64-5.31-62.24-2.41-98.9-4.34-36.67-1.93-68.03-5.31-101.8,31.84-33.77,37.15-55.96,90.22-59.82,106.62-3.86,16.4-5.31,55.96,4.82,50.17,10.13-5.79,60.79-31.36,118.2-36.67,57.41-5.31,111.45-11.1,139.91-5.79,28.47,5.31,43.42,11.1,37.63,16.4-5.79,5.31-137.98,4.83-197.8,29.91C66.11,279.8.49,327.08.01,372.92c-.48,45.83,16.4,97.94,43.9,93.59,27.5-4.34,90.22-51.62,122.54-65.13,32.32-13.51,98.42-46.31,119.65-53.07,21.23-6.75,55.97-13.03,54.03-.48-1.93,12.54-102.28,43.42-146.18,76.23-43.9,32.81-102.76,98.9-118.2,120.12-15.44,21.23-34.74,30.39-17.85,75.75,16.89,45.35,59.34,83.94,59.34,83.94,0,0-10.13-14.47,11.1-56.45,21.23-41.97,63.68-108.55,77.19-122.06,13.51-13.51,31.84-28.46,31.84-18.81s-56.45,54.52-73.82,132.67c-9.19,41.35-11.62,77.02-10.95,98.24-16.76,41.48-26.39,81.66-22.82,95.21,4.83,18.33,24.61,55.96,35.22,66.57,9.03,9.03,37.28,27.84,45.49,33.25-7.53-5.85-29.16-31.06,7.58-111.88,43.42-95.53,78.16-125.44,86.84-133.16,8.68-7.72,33.29-29.43,34.74-14.95,1.45,14.47-21.71,70.92-39.08,107.58-17.37,36.67-47.76,65.61-57.41,114.82-9.65,49.21-2.89,55.48,3.38,61.75,6.27,6.27,55,25.57,67.06,42.93,12.06,17.37,27.02,32.32,53.07,27.98,26.05-4.34,86.84-9.17,89.25-14.96,2.41-5.79,2.89-96.49-4.34-135.57-7.24-39.08-18.81-90.7,1.93-97.45,20.75-6.76,48.25,32.32,58.38,67.06,10.13,34.73,15.44,82.01,4.34,119.16-11.1,37.15-48.25,51.14-48.25,51.14,0,0,44.87.96,82.5-19.78,37.63-20.75,40.04-24.12,40.04-24.12,0,0,26.53-67.06,13.03-134.12-13.51-67.06-44.87-134.6-68.03-165.96-23.16-31.36-57.41-73.81-37.15-83.95,20.26-10.13,62.72,50.18,68.03,69.47,5.31,19.3,24.12,87.32,35.7,117.71,11.58,30.4,26.53,77.67,31.84,112.41,5.31,34.73,6.27,68.99,0,80.09-6.27,11.09-27.02,27.5-27.02,27.5,0,0,89.73-56.45,122.06-90.7,32.32-34.25,36.66-27.02,36.18-68.51-.48-41.49,2.12-83.45-29.33-135.08-31.46-51.62-100.93-158.24-136.63-192.98-35.7-34.74-75.26-69.56-44.87-76.51,30.39-6.95,57.41-4.54,173.68,102.56,116.27,107.1,165,159.21,165,159.21,0,0,33.77-42.45,39.56-94.56,5.79-52.1,18.33-80.08-11.1-110.96-29.43-30.88-94.56-84.91-197.32-124.95-102.76-40.04-159.21-55-126.4-61.75ZM165.55,708.28c2.78-22.3,7.23-47.24,18.27-66.17,20.26-34.74,60.31-65.61,80.09-74.78,19.78-9.17,53.07-27.5,35.7-10.61-17.37,16.89-98.42,84.43-126.88,137.5-2.46,4.59-4.86,9.3-7.17,14.07Z"/>
    </g>
  </g>
</svg>