<?xml version="1.0" encoding="UTF-8"?>
<svg id="Layer_2" data-name="Layer 2" xmlns="http://www.w3.org/2000/svg" viewBox="0 0 1036.93 1079.24">
  <g id="_Layer_" data-name="&amp;lt;Layer&amp;gt;">
    <g>
      <path d="M1036.12,373.15c-7.6-80.57-3.8-164.17-41.8-226.5C956.32,84.33,875.75-9.16,779.99.72c-95.77,9.88-127.69,65.36-164.93,110.97-37.24,45.6-63.95,84.48-82.85,95.01-6.6,3.68-12.12,5.2-16.7,5.41,5.48-.24,9.92-2.22,9.92-2.22,0,0-.1,1.11-.28,3.15.42-.13,1.63-.51,3.57-1.12,2.44-.79,6.06-1.86,10.57-3.39,2.26-.75,4.77-1.59,7.5-2.49,2.72-.95,5.66-1.97,8.8-3.07,6.27-2.22,13.32-4.8,20.98-7.73,7.65-2.93,15.9-6.19,24.58-9.77,8.69-3.56,17.79-7.46,27.19-11.55,18.78-8.2,38.65-17.34,58.56-26.42,19.92-9.04,39.88-18.07,59.17-25.14,9.64-3.5,19.13-6.53,28.36-8.46,2.32-.4,4.59-.94,6.87-1.19,1.13-.15,2.26-.3,3.38-.45,1.13-.08,2.24-.16,3.35-.24,4.43-.26,8.69-.29,12.8-.44,16.4-.49,30.07-.89,39.63-1.18,9.57-.15,15.04-.23,15.04-.23,0,0-5.47.13-15.04.36-9.56.37-23.23.89-39.62,1.52-4.09.19-8.38.26-12.78.56-1.1.09-2.21.17-3.32.26-1.11.16-2.23.32-3.35.48-2.26.26-4.51.82-6.81,1.24-9.16,2-18.59,5.1-28.18,8.67-19.17,7.21-39.03,16.41-58.87,25.62-19.82,9.25-39.62,18.56-58.35,26.94-9.38,4.17-18.46,8.16-27.13,11.8-8.66,3.66-16.91,7.01-24.56,10.01-7.65,3-14.7,5.65-20.97,7.93-3.14,1.13-6.08,2.18-8.8,3.16-2.74.94-5.25,1.8-7.52,2.57-4.54,1.58-8.12,2.67-10.56,3.49-2.44.79-3.74,1.22-3.74,1.22l-.79-2.46c-.31,3.54-.84,9.52-1.52,17.24l.55-2.22s6.02,1.54,16.56,4.23c5.27,1.31,11.65,3.07,19.01,4.77,7.37,1.65,15.68,3.52,24.74,5.55,4.57.85,9.33,1.74,14.25,2.66,4.93.92,10.01,1.94,15.29,2.62,5.27.76,10.68,1.55,16.21,2.35,5.56.6,11.24,1.21,17.02,1.83,2.88.34,5.81.57,8.76.8,2.94.24,5.91.47,8.89.71,5.97.51,12.02.9,18.12,1.32,12.21.84,24.61,1.7,37.01,2.55,3.18.29,6.2.68,9.3,1.01,3.08.35,6.17.63,9.23,1.26,6.13,1.11,12.27,2.08,18.21,3.6,2.99.69,5.96,1.38,8.92,2.07,2.93.81,5.84,1.61,8.74,2.4,2.89.82,5.79,1.54,8.61,2.43,2.83.89,5.63,1.76,8.42,2.64,5.59,1.67,10.99,3.61,16.3,5.43,5.33,1.77,10.44,3.77,15.46,5.61,5.03,1.82,9.83,3.8,14.52,5.62,4.69,1.81,9.16,3.73,13.47,5.51,4.32,1.76,8.4,3.57,12.3,5.26,3.91,1.67,7.58,3.33,11.03,4.89,3.46,1.54,6.68,3.02,9.65,4.42,2.97,1.38,5.7,2.65,8.15,3.84,9.82,4.68,15.34,7.53,15.34,7.53,0,0-5.56-2.79-15.43-7.36-2.46-1.16-5.2-2.4-8.19-3.74-2.98-1.36-6.22-2.8-9.69-4.3-3.47-1.52-7.16-3.14-11.08-4.76-3.92-1.65-8.02-3.4-12.35-5.11-4.33-1.73-8.81-3.59-13.52-5.35-4.7-1.77-9.52-3.7-14.56-5.45-5.03-1.78-10.16-3.71-15.5-5.42-5.32-1.75-10.73-3.62-16.32-5.23-2.79-.84-5.6-1.68-8.42-2.53-2.83-.85-5.72-1.54-8.61-2.33-2.89-.76-5.81-1.53-8.73-2.3-2.95-.65-5.92-1.3-8.9-1.96-5.94-1.44-12-2.33-18.07-3.35-3.01-.59-6.11-.83-9.2-1.15-3.07-.3-6.22-.66-9.23-.9-12.41-.71-24.82-1.43-37.03-2.13-6.11-.34-12.17-.67-18.16-1.11-2.99-.21-5.97-.41-8.93-.61-2.96-.2-5.89-.39-8.8-.7-5.82-.56-11.53-1.11-17.13-1.64-5.58-.74-11.03-1.47-16.34-2.18-5.32-.62-10.45-1.6-15.41-2.46-4.96-.87-9.76-1.71-14.37-2.52-9.15-1.94-17.54-3.73-24.97-5.31-7.42-1.62-13.79-3.31-19.09-4.55-9.12-2.22-14.86-3.62-16.26-3.96-1.51,17.21-3.68,42.04-5.84,67.62l.56-.5s1.17,1.33,3.36,3.82c1.1,1.22,2.46,2.57,4.05,4.25,1.68,1.61,3.58,3.54,5.86,5.54,4.47,4.09,10.21,8.77,17.08,13.82,6.86,5.06,14.86,10.47,23.77,16.17,17.8,11.4,39.19,23.91,61.76,37.96,22.57,14.03,46.27,29.71,68.89,46.86,11.32,8.56,22.38,17.46,32.96,26.57,10.57,9.1,20.79,18.28,30.48,27.37,19.38,18.18,36.6,36.07,50.52,52.12,13.94,16.04,24.6,30.22,31.47,40.54,3.45,5.15,5.95,9.33,7.55,12.23.79,1.46,1.38,2.59,1.72,3.38.18.39.29.7.37.9.05.21.08.32.08.32,0,0-.03-.11-.08-.32-.09-.2-.19-.51-.38-.89-.36-.78-.96-1.9-1.78-3.34-1.65-2.87-4.22-7.01-7.75-12.09-7.03-10.18-17.91-24.16-32.09-39.93-14.16-15.79-31.64-33.34-51.27-51.14-9.81-8.91-20.14-17.88-30.84-26.78-10.68-8.89-21.84-17.56-33.23-25.89-22.78-16.69-46.61-31.88-69.33-45.48-22.72-13.63-44.31-25.77-62.46-36.96-9.08-5.59-17.29-10.95-24.4-16.01-7.12-5.05-13.13-9.78-17.87-13.96-2.41-2.05-4.43-4.03-6.24-5.71-1.32-1.34-2.53-2.53-3.54-3.57-2.29,27.2-4.49,54.29-5.83,73.07-.96,13.48-3.93,49.22-7.93,95.87,2.04,1.86,5.87,5.35,11.2,10.19,4.08,3.77,9.04,8.34,14.72,13.59,5.63,5.31,12.02,11.24,18.87,17.86,6.88,6.58,14.24,13.81,21.97,21.51,3.82,3.89,7.75,7.89,11.77,11.98,3.94,4.16,8.04,8.34,12.08,12.72,4.02,4.39,8.19,8.78,12.22,13.4,2.04,2.29,4.08,4.6,6.14,6.91,2.01,2.36,4.03,4.73,6.06,7.11l3.05,3.58,2.97,3.66c1.98,2.45,3.97,4.9,5.96,7.36,3.84,5.04,7.81,10,11.48,15.2,3.8,5.1,7.31,10.4,10.87,15.64,3.38,5.36,6.82,10.65,9.88,16.11.79,1.36,1.57,2.7,2.35,4.05.74,1.38,1.47,2.75,2.2,4.12,1.45,2.73,2.89,5.45,4.32,8.15,1.43,2.7,2.86,5.39,4.27,8.05,1.42,2.66,2.7,5.38,4.04,8.04,2.64,5.33,5.24,10.57,7.79,15.7,2.46,5.17,4.86,10.22,7.21,15.14,4.72,9.83,8.96,19.22,12.92,27.87,3.98,8.63,7.46,16.63,10.63,23.68,3.1,7.08,5.8,13.25,8.04,18.33,4.37,10.2,6.87,16.02,6.87,16.02,0,0-2.57-5.8-7.05-15.94-2.29-5.06-5.06-11.19-8.24-18.24-3.25-7.01-6.81-14.96-10.89-23.55-4.06-8.6-8.4-17.94-13.23-27.7-2.39-4.89-4.86-9.92-7.37-15.05-2.6-5.09-5.25-10.29-7.95-15.58-1.37-2.64-2.67-5.33-4.12-7.98-1.44-2.65-2.9-5.32-4.36-8.01-1.46-2.68-2.93-5.39-4.42-8.1-.74-1.35-1.48-2.7-2.23-4.06-.79-1.33-1.59-2.67-2.38-4-3.1-5.4-6.58-10.62-10-15.9-3.6-5.17-7.15-10.4-10.99-15.43-3.7-5.12-7.71-10.02-11.58-14.99-2.01-2.43-4.02-4.84-6.02-7.26l-3-3.61-3.07-3.53c-2.04-2.35-4.08-4.69-6.11-7.01-2.08-2.29-4.14-4.56-6.19-6.82-4.07-4.55-8.26-8.89-12.32-13.21-4.07-4.32-8.2-8.44-12.18-12.54-4.05-4.03-8.01-7.97-11.87-11.81-7.79-7.59-15.21-14.72-22.15-21.21-6.9-6.52-13.35-12.38-19.03-17.6-5.73-5.17-10.72-9.68-14.83-13.39-3.64-3.24-6.59-5.87-8.76-7.79-11.86,138.1-32.15,364.7-37.2,401.64-6.11,44.85,2.35-135.67,9.64-256.99-.83.62-1.75,1.31-2.75,2.06-2.54,1.9-5.67,4.17-9,7.01-3.37,2.81-7.25,5.88-11.34,9.42-4.06,3.6-8.45,7.5-13.1,11.62-4.53,4.26-9.3,8.76-14.25,13.41-4.82,4.78-9.88,9.64-14.88,14.72-4.96,5.13-10.12,10.22-15.05,15.53-4.98,5.26-9.98,10.52-14.78,15.79-2.41,2.63-4.8,5.24-7.17,7.82-2.33,2.61-4.64,5.18-6.91,7.71-4.56,5.04-8.86,10.01-12.98,14.69-4.07,4.72-7.92,9.18-11.47,13.3-3.51,4.16-6.72,7.97-9.57,11.35-2.82,3.4-5.28,6.37-7.3,8.81-4.01,4.92-6.3,7.74-6.3,7.74,0,0,2.24-2.86,6.14-7.86,1.98-2.48,4.38-5.5,7.13-8.95,2.78-3.44,5.92-7.31,9.35-11.54,3.47-4.19,7.23-8.73,11.21-13.53,4.03-4.76,8.23-9.83,12.69-14.96,2.22-2.58,4.48-5.2,6.76-7.85,2.32-2.63,4.66-5.29,7.02-7.96,4.7-5.39,9.6-10.74,14.49-16.11,4.84-5.41,9.91-10.62,14.78-15.85,4.91-5.19,9.89-10.17,14.64-15.06,4.87-4.77,9.58-9.38,14.04-13.75,4.59-4.24,8.94-8.25,12.95-11.95,4.06-3.65,7.95-6.86,11.31-9.78,3.35-2.96,6.42-5.27,8.92-7.23,2.47-1.93,4.42-3.44,5.76-4.49.74-12.2,1.47-23.73,2.16-34.29,3.27-49.79,7.82-121.89,11.86-190.48-1.71.71-3.6,1.5-5.65,2.35-5.51,2.27-12.21,5.02-19.88,8.17-7.69,3.12-16.37,6.63-25.84,10.47-18.94,7.61-41.04,16.49-64.72,26-11.81,4.81-24.02,9.77-36.33,15.02-3.08,1.3-6.18,2.61-9.28,3.92-3.09,1.35-6.18,2.7-9.28,4.06-3.1,1.36-6.21,2.72-9.32,4.08l-9.27,4.24-9.26,4.25c-3.06,1.48-6.11,2.95-9.15,4.42-3.04,1.49-6.11,2.91-9.1,4.44-2.99,1.54-5.98,3.08-8.95,4.61-5.99,2.99-11.75,6.27-17.48,9.45-1.43.79-2.86,1.59-4.29,2.38-1.41.81-2.79,1.67-4.17,2.5-2.77,1.67-5.51,3.33-8.24,4.98-2.75,1.6-5.36,3.38-7.97,5.11-2.61,1.73-5.19,3.44-7.74,5.13-5.03,3.49-9.78,7.15-14.5,10.58-4.56,3.65-9,7.2-13.3,10.64-2.15,1.72-4.26,3.41-6.33,5.07-2.08,1.65-4.1,3.29-6.03,4.96-7.74,6.64-14.98,12.57-20.99,18.28-1.53,1.4-3,2.75-4.43,4.07-1.44,1.3-2.8,2.57-4.05,3.86-2.53,2.54-4.85,4.88-6.95,6.98-2.02,2.18-3.75,4.2-5.3,5.92-.79.85-1.45,1.69-2.03,2.48-.59.78-1.13,1.49-1.62,2.12-1.9,2.56-2.59,4.13-2.59,4.13,0,0,.67-1.58,2.53-4.17.48-.64,1-1.36,1.59-2.14.57-.8,1.22-1.65,2-2.51,1.52-1.74,3.22-3.79,5.22-6,2.07-2.14,4.37-4.51,6.86-7.09,1.23-1.31,2.58-2.6,4-3.92,1.41-1.33,2.87-2.71,4.38-4.13,5.94-5.81,13.1-11.84,20.76-18.6,1.9-1.71,3.9-3.38,5.96-5.05,2.05-1.69,4.14-3.41,6.26-5.16,4.25-3.5,8.65-7.11,13.16-10.83,4.69-3.51,9.42-7.26,14.42-10.83,2.54-1.74,5.11-3.5,7.7-5.27,2.59-1.77,5.19-3.6,7.93-5.24,2.71-1.69,5.45-3.4,8.2-5.11,1.38-.85,2.75-1.74,4.16-2.57,1.42-.81,2.84-1.63,4.27-2.45,5.71-3.27,11.45-6.65,17.41-9.73,2.96-1.58,5.93-3.16,8.92-4.75,2.99-1.57,6.04-3.04,9.07-4.58,3.04-1.52,6.08-3.04,9.12-4.57l9.23-4.39,9.23-4.38c3.1-1.41,6.19-2.81,9.28-4.22,3.09-1.4,6.17-2.8,9.25-4.2,3.09-1.36,6.17-2.71,9.24-4.06,12.27-5.43,24.42-10.57,36.17-15.55,23.54-9.84,45.52-19.03,64.36-26.91,9.4-3.96,18.02-7.59,25.66-10.81,7.62-3.26,14.26-6.1,19.73-8.44,3.19-1.38,5.96-2.58,8.31-3.6,2.65-45.15,5.04-88.4,6.67-122.32-2.17.34-8.69,1.35-18.67,2.91-12.41,1.89-30.14,4.58-51.43,7.62-21.29,3.05-46.15,6.46-72.78,10.05-26.62,3.62-55.04,7.36-83.33,11.75-28.27,4.42-56.48,9.49-82.3,16.7-12.91,3.59-25.21,7.69-36.59,12.31-5.67,2.35-11.14,4.75-16.34,7.28-5.19,2.52-10.16,5.12-14.94,7.57-19.11,9.84-35.04,18.04-46.18,23.78-5.56,2.89-9.93,5.17-12.91,6.72-1.48.79-2.62,1.39-3.39,1.8-.75.41-1.17.64-1.13.64-.04,0,.37-.23,1.12-.66.76-.42,1.89-1.04,3.36-1.85,2.95-1.6,7.29-3.95,12.8-6.94,11.05-5.93,26.84-14.39,45.79-24.55,4.75-2.53,9.65-5.2,14.84-7.83,5.18-2.64,10.64-5.14,16.31-7.6,11.37-4.84,23.68-9.16,36.6-12.99,25.85-7.68,54.09-13.23,82.35-18.13,28.28-4.87,56.64-9.09,83.21-13.14,26.57-4.03,51.35-7.84,72.56-11.24,21.22-3.39,38.87-6.36,51.22-8.46,12.35-2.13,19.42-3.35,19.42-3.35l.62,3.75c.76-15.98,1.33-29.73,1.67-40.42l-.63,2.19s-4.56-1.34-12.54-3.69c-3.98-1.21-8.84-2.53-14.37-4.31-5.51-1.86-11.73-3.95-18.52-6.23-1.7-.57-3.42-1.16-5.19-1.75-1.74-.65-3.52-1.31-5.32-1.99-3.61-1.35-7.34-2.74-11.17-4.17-7.7-2.77-15.66-6.11-23.93-9.46-8.31-3.27-16.71-7.05-25.31-10.78-2.14-.94-4.3-1.88-6.46-2.82-2.14-.98-4.29-1.97-6.44-2.96-4.3-1.99-8.62-3.98-12.94-5.98-8.63-4-17.13-8.27-25.56-12.33-8.34-4.26-16.59-8.35-24.48-12.51-7.88-4.16-15.52-8.15-22.67-12.11-7.19-3.88-13.92-7.66-20.13-11.17-6.22-3.48-11.85-6.81-16.87-9.69-4.98-2.96-9.34-5.5-12.89-7.67-7.13-4.28-11.14-6.83-11.14-6.83,0,0,4.05,2.49,11.24,6.66,3.58,2.12,7.98,4.58,13,7.47,5.07,2.8,10.74,6.05,17.01,9.43,6.26,3.41,13.04,7.09,20.28,10.86,7.2,3.85,14.89,7.71,22.83,11.75,7.94,4.04,16.25,7.99,24.63,12.12,8.48,3.93,17.03,8.06,25.7,11.93,4.34,1.93,8.68,3.85,13,5.77,2.16.96,4.32,1.91,6.47,2.86,2.17.91,4.33,1.81,6.49,2.71,8.62,3.59,17.07,7.23,25.39,10.37,8.29,3.21,16.27,6.43,23.98,9.07,3.84,1.37,7.57,2.7,11.18,3.99,1.8.64,3.58,1.28,5.32,1.9,1.76.57,3.48,1.12,5.17,1.67,6.76,2.16,12.96,4.15,18.45,5.91,5.52,1.69,10.43,2.94,14.42,4.09,6.4,1.78,10.6,2.95,12.03,3.35.25-8.37.33-14.65.23-18.39h0c-1.43-1.79-2.07-3.21-2.07-3.21C456.2,77.49,433.4-10.68,274.55,6.04,115.7,22.77,61.73,204.42,32.85,275.1c-28.88,70.68-49.41,149.73-14.44,255.38,34.96,105.65,79.81,235.62,160.37,312.38,80.57,76.77,171.77,136.05,202.18,158.85,30.4,22.8,49.4,77.53,49.4,77.53,0,0,23.56-21.28,92.73-64.61,69.16-43.33,172.53-76.01,201.41-101.85,28.88-25.84,63.08-60.8,55.49-78.29-7.6-17.48-22.04-99.57-53.21-156.57-31.16-57-60.8-120.85-94.25-150.49-33.44-29.64-64.61-78.29-1.52-68.4,63.08,9.88,132.25,90.44,160.37,161.89,28.12,71.45,7.6,180.89,7.6,180.89,0,0,63.49-51.68,98.81-104.13,35.32-52.45,98.05-145.93,76-149.73-22.04-3.8-43.32-19.76-100.33-66.12-57.01-46.36-147.45-104.13-168.73-120.85-21.28-16.72-39.52-34.96-16.72-34.96s146.69,38,201.42,67.65c54.73,29.64,64.6,53.2,69.93,68.4,5.32,15.2,9.88,96.01,22.8,79.55,12.92-16.46,61.57-87.91,53.96-168.47ZM160.54,449.16c49.4-27.36,125.41-82.85,222.7-89.69,0,0,31.35,1.14-6.08,24.32-20.28,12.56-58.52,15.2-127.69,41.8-69.16,26.6-128.45,94.25-165.69,100.33-37.24,6.08,27.36-49.4,76.77-76.76ZM241.11,654.75c-15.2,11.4-15.2,2.28-15.2,2.28,5.7-46.74,34.58-87.79,84.37-120.85s102.99-42.56,99.95-16.34c-3.04,26.22-72.58,60.43-105.65,82.85-33.06,22.42-54.82,45.58-63.47,52.06ZM681.56,917.73s-2.66,7.22-12.92,5.7c-10.26-1.52-20.52-43.32-46.74-103.75-26.22-60.43-65.75-117.05-74.49-152.39-8.74-35.34,11.78-37.24,44.46-31.54,32.68,5.7,79.05,70.69,103.75,132.63,24.7,61.94,10.26,109.45-14.06,149.35Z"/>
      <path d="M513.8,212.13c.52.01,1.03,0,1.54-.01-.53.02-1.04.02-1.54.01Z"/>
      <path d="M512.5,212.06s.06,0,.09.01c.23.02.46.03.69.04-.26-.01-.53-.03-.78-.05Z"/>
    </g>
  </g>
</svg>