<?xml version="1.0" encoding="UTF-8"?>
<svg id="Layer_2" xmlns="http://www.w3.org/2000/svg" version="1.1" viewBox="0 0 978 1068.6">
  <!-- Generator: Adobe Illustrator 29.1.0, SVG Export Plug-In . SVG Version: 2.1.0 Build 142)  -->
  <g id="_Layer_">
    <path d="M936.3,228.9c-40.9-33.1-78.8-56.5-73.9-70.5,9.4-27.1-18.3-113.1-129-92.4-110.6,20.7-139.8,56.8-149,89.1s-19.2,62.2-19.2,62.2c0,0-.3,1.1-1,3.1.2,0,.3,0,.5-.1,1.1-.3,2.4-.8,3.9-1.2,1.4-.5,3-1,4.8-1.5.9-.2,1.8-.6,2.7-1,.9-.4,1.9-.8,2.9-1.2,2-.8,4.1-1.7,6.3-2.6s2.2-.9,3.4-1.4c1.2-.5,2.3-1.1,3.5-1.6,4.7-2.3,9.9-4.7,15.3-7.3,5.4-2.7,10.9-5.8,16.7-8.9,2.9-1.6,5.8-3.1,8.8-4.7,3-1.6,5.9-3.4,8.9-5.1,6-3.5,12-7.1,18-10.6,6.1-3.5,12-7.3,17.8-11,5.8-3.7,11.6-7.3,17.1-10.8,5.5-3.5,11-6.8,15.9-10.2,5-3.4,9.7-6.5,14.1-9.5,17.5-11.7,29.1-19.5,29.1-19.5,0,0-11.6,7.9-29,19.7-4.3,3-9.1,6.2-14,9.6-4.9,3.5-10.4,6.8-15.9,10.4-5.5,3.6-11.2,7.2-17.1,10.9s-11.7,7.6-17.8,11.1c-6,3.6-12,7.2-18,10.7-3,1.8-5.9,3.6-8.8,5.2-3,1.6-5.9,3.2-8.8,4.8-5.8,3.1-11.3,6.2-16.7,9-5.4,2.6-10.6,5.1-15.3,7.4-1.2.6-2.3,1.2-3.5,1.7-1.2.5-2.3,1-3.4,1.4-2.2.9-4.3,1.8-6.3,2.6-1,.4-2,.8-2.9,1.2-.9.4-1.8.8-2.7,1-1.8.6-3.4,1.1-4.9,1.6-1.5.5-2.8.9-3.9,1.3-.5.1-.9.2-1.3.3-1,3.2-2.5,7.9-4.3,13.9l.5-1.5s1.3.4,3.8,1.3c2.5.8,6.1,2.2,10.8,3.4,4.6,1.4,10.4,2.8,17,4.1,6.7,1.3,14.2,2.5,22.5,3.3,2.1.2,4.2.4,6.4.6,2.2.1,4.4.3,6.6.4,2.2.2,4.5.2,6.9.3,2.3,0,4.7.1,7.1.2,9.6,0,19.7-.1,30.2-.6,10.5-.5,21.3-1.2,32.3-2,5.5-.4,11-.8,16.6-1.2,5.5-.4,11.2-.9,16.8-1.1,2.8-.1,5.6-.3,8.4-.4,2.8,0,5.6,0,8.4,0,5.6-.1,11.1.2,16.7.4,5.5.2,11,.6,16.4.9,5.4.4,10.7.8,15.9,1.2,5.2.5,10.4,1,15.4,1.5,5,.6,9.9,1.1,14.7,1.7,9.5,1.2,18.6,2.4,26.9,3.6,16.6,2.4,30.4,4.7,40.1,6.3,9.7,1.7,15.1,2.7,15.1,2.7,0,0-5.5-1-15.2-2.6s-23.5-3.8-40.1-6c-8.3-1.1-17.3-2.2-26.9-3.3-4.8-.5-9.7-1-14.7-1.6-5-.4-10.2-.9-15.4-1.4-5.2-.4-10.5-.8-15.9-1.1-5.4-.2-10.8-.6-16.3-.7-5.5,0-11-.4-16.6-.2-2.8,0-5.6,0-8.3,0-2.8,0-5.6.3-8.4.4-5.6.2-11.1.8-16.7,1.2-5.5.5-11.1.9-16.6,1.4-11,.9-21.8,1.7-32.3,2.3-10.5.6-20.7.9-30.3.9-2.4,0-4.8,0-7.1-.1-2.3,0-4.7-.1-6.9-.2-2.3-.1-4.5-.2-6.7-.4-2.2-.2-4.3-.4-6.4-.6-8.4-.7-16.1-1.9-22.8-3.2-6.7-1.4-12.6-2.7-17.3-4.1-4.8-1.2-8.4-2.5-10.9-3.3-2.3-.8-3.6-1.2-3.8-1.2-4,13.1-9.8,31.7-16.3,53.1.1.1.2.2.3.3,2.5,2.1,6.1,5.1,11,8.8,9.7,7.4,24.1,17.2,42,28.2,17.9,11,39.1,23.3,61.9,36.3,22.8,13.1,47.1,27,71.2,41.5,12,7.2,24,14.6,35.6,22,11.7,7.4,23.1,14.8,33.8,22.5,21.5,15.2,40.2,31.3,54.6,46.8,7.2,7.7,13.3,15.2,18.2,22.2,4.9,7,8.7,13.4,11.4,19,2.7,5.5,4.4,10,5.3,13.2.9,3.2,1.2,4.9,1.2,4.9,0,0-.2-1.7-1.2-4.9-1-3.1-2.7-7.7-5.5-13.1-2.8-5.5-6.7-11.8-11.7-18.8-5-6.9-11.2-14.3-18.4-21.9-14.5-15.2-33.4-31-55-45.9-10.8-7.5-22.3-14.7-34-21.9-11.7-7.2-23.8-14.4-35.9-21.5-24.2-14.1-48.7-27.8-71.7-40.5s-44.4-24.8-62.5-35.6c-18.1-10.8-32.8-20.5-42.8-27.9-4-2.9-7.2-5.5-9.7-7.5-9.7,31.7-21,68.5-31.1,101.8,2.7,1.6,6.4,3.8,11.1,6.6,2.5,1.7,5.2,3.5,8.1,5.5,1.5,1,3,2,4.6,3.1.8.5,1.6,1.1,2.4,1.6.8.6,1.6,1.2,2.4,1.8,3.3,2.5,6.8,5.1,10.5,7.9,1.9,1.4,3.7,2.9,5.5,4.5,1.9,1.6,3.8,3.1,5.7,4.8,1.9,1.6,4,3.2,5.9,5,1.9,1.8,3.9,3.6,5.9,5.5,2,1.9,4,3.7,6.1,5.6,2,2,4,4,6,6.1,2,2,4.1,4.1,6.2,6.2,2.1,2.1,4,4.4,6.1,6.6,2,2.2,4.1,4.5,6.2,6.8,2.1,2.3,4,4.8,6.1,7.1,2,2.4,4.1,4.8,6.2,7.3,2,2.5,4,5.1,6,7.6,2,2.6,4.1,5.1,6,7.7,1.9,2.6,3.9,5.3,5.8,8,7.8,10.7,15.2,21.9,22.5,33.3,3.5,5.7,7,11.5,10.4,17.2,1.7,2.9,3.3,5.8,5,8.7l2.5,4.3c.8,1.5,1.6,2.9,2.4,4.4,1.6,2.9,3.1,5.8,4.7,8.7,1.5,2.9,3,5.8,4.5,8.7,3,5.8,5.8,11.5,8.5,17.2,2.8,5.7,5.3,11.3,7.8,16.8,2.4,5.6,4.9,11,7.1,16.3,2.2,5.3,4.4,10.5,6.4,15.5,2,5,3.9,9.9,5.7,14.6,1.8,4.7,3.4,9.2,5,13.6,1.5,4.3,3,8.4,4.3,12.3,2.6,7.7,4.8,14.5,6.5,20.2,3.4,11.2,5,17.8,5,17.8,0,0-1.7-6.5-5.2-17.7-1.8-5.6-4-12.4-6.7-20.1-1.3-3.9-2.8-7.9-4.4-12.3-1.6-4.3-3.3-8.8-5.1-13.5-1.8-4.7-3.8-9.6-5.8-14.6-2-5-4.3-10.2-6.5-15.5-2.3-5.3-4.8-10.7-7.2-16.2-2.6-5.5-5.2-11.1-8-16.7-2.8-5.6-5.6-11.4-8.7-17.1-1.5-2.9-3-5.8-4.5-8.6-1.6-2.9-3.2-5.7-4.8-8.6-.8-1.4-1.6-2.9-2.4-4.3l-2.5-4.3c-1.7-2.9-3.4-5.7-5-8.6-3.4-5.7-7-11.4-10.5-17.1-7.3-11.2-14.8-22.3-22.7-32.9-2-2.6-3.9-5.3-5.9-7.9-2-2.6-4-5.1-6.1-7.6-2-2.5-4-5-6-7.5-2.1-2.4-4.2-4.8-6.2-7.2-2.1-2.4-4-4.8-6.1-7-2.1-2.2-4.2-4.5-6.2-6.7-2.1-2.2-4.1-4.4-6.1-6.5-2.1-2.1-4.2-4.1-6.2-6.1-2-2-4.1-4-6.1-6-2.1-1.9-4.1-3.7-6.1-5.5s-4-3.6-5.9-5.3c-1.9-1.8-4-3.3-5.9-4.9-1.9-1.6-3.8-3.1-5.7-4.7-1.9-1.5-3.6-3-5.5-4.4-3.7-2.7-7.1-5.3-10.4-7.7-.8-.6-1.6-1.2-2.4-1.8-.8-.5-1.6-1.1-2.4-1.6-1.6-1-3.1-2-4.6-3-2.9-1.9-5.6-3.7-8-5.3-4.2-2.4-7.6-4.4-10.2-5.9-11.6,38.4-21.5,71.7-25.5,86.5-2.9,10.6-8.5,32.3-15.7,60.3,1.5,1.5,3.4,3.5,5.8,5.9,2.9,3,6.2,6.8,10.1,11.1,1.9,2.2,3.8,4.6,5.9,7.1,1,1.2,2.1,2.5,3.2,3.8,1,1.3,2.1,2.7,3.2,4.2,2.1,2.8,4.5,5.7,6.6,8.9,2.2,3.1,4.5,6.4,6.8,9.7,2.2,3.4,4.5,6.9,6.8,10.5,2.2,3.7,4.4,7.4,6.7,11.2,2.2,3.9,4.3,7.8,6.5,11.8,2.1,4.1,4.2,8.2,6.3,12.3,2,4.2,4,8.4,6,12.7,1.9,4.3,3.9,8.6,5.6,13l2.7,6.6c.9,2.2,1.7,4.4,2.5,6.6,1.7,4.4,3.2,8.8,4.8,13.2,1.6,4.4,2.9,8.8,4.3,13.1,1.3,4.4,2.6,8.7,3.8,12.9,2.4,8.5,4.5,16.8,6.3,24.7.9,4,1.7,7.8,2.5,11.5.7,3.8,1.5,7.3,2.1,10.8,1.3,7,2.3,13.4,3.1,19.1.8,5.7,1.4,10.7,1.8,14.8.9,8.2,1.1,12.9,1.1,12.9,0,0-.3-4.7-1.2-12.9-.5-4.1-1.1-9.1-2-14.8-.9-5.7-1.9-12.1-3.3-19-.6-3.5-1.5-7.1-2.2-10.8-.8-3.7-1.7-7.6-2.6-11.5-1.9-7.9-4.1-16.1-6.5-24.6-1.2-4.2-2.6-8.5-3.9-12.9-1.5-4.3-2.8-8.7-4.4-13-1.6-4.4-3.1-8.8-4.9-13.1-.9-2.2-1.7-4.4-2.6-6.6l-2.7-6.5c-1.8-4.4-3.8-8.6-5.7-12.9-1.9-4.3-4-8.4-6-12.6-2.1-4.1-4.3-8.2-6.4-12.2-2.2-4-4.5-7.8-6.6-11.7-2.3-3.8-4.6-7.5-6.8-11.1-2.3-3.5-4.6-7-6.9-10.4-2.3-3.3-4.6-6.5-6.8-9.6-2.2-3.1-4.5-5.9-6.7-8.7-1.1-1.4-2.1-2.8-3.2-4.1-1.1-1.3-2.1-2.5-3.2-3.8-2.1-2.5-4-4.8-5.9-7-3.9-4.2-7.2-7.9-10-10.8-1.8-1.8-3.3-3.2-4.6-4.5-24.1,93.8-64.7,254.1-79.5,313.3-19.5,77.8-26.6,163.9-26.6,163.9,0,0-2-80.4,24.6-189,16.5-67.3,36.4-153.3,52.5-223.7-1.4.5-2.9,1-4.6,1.7-3.8,1.4-8.2,3.5-13.4,5.6-2.6,1.1-5.2,2.5-8.1,3.8-2.8,1.4-5.9,2.8-8.9,4.5-3,1.7-6.2,3.4-9.5,5.2-3.2,1.9-6.5,4-9.9,6-3.3,2.1-6.7,4.5-10.2,6.8-3.5,2.3-6.8,5-10.3,7.5-3.5,2.6-6.8,5.4-10.4,8.2-3.4,2.8-6.8,5.9-10.2,8.8-3.3,3.1-6.7,6.2-10,9.4-1.6,1.6-3.2,3.3-4.9,4.9-1.6,1.6-3.3,3.3-4.8,5-3.1,3.4-6.3,6.8-9.3,10.3-1.5,1.8-3,3.5-4.5,5.2-1.5,1.8-2.9,3.6-4.3,5.3-2.9,3.5-5.6,7.2-8.3,10.7-2.7,3.6-5.3,7.2-7.8,10.7-2.5,3.6-4.9,7.1-7.1,10.6-1.1,1.8-2.2,3.5-3.4,5.2-1.1,1.7-2.1,3.5-3.2,5.2-2.1,3.4-4,6.8-5.9,10-1.8,3.3-3.6,6.4-5.2,9.5-3.3,6.1-6.1,11.9-8.6,17-2.4,5.1-4.4,9.6-6,13.4-3.2,7.5-4.7,11.9-4.7,11.9,0,0,1.4-4.4,4.5-12,1.5-3.8,3.5-8.3,5.8-13.5,2.4-5.1,5.1-10.9,8.3-17.1,1.6-3.1,3.3-6.3,5.1-9.6,1.9-3.3,3.7-6.7,5.8-10.1,1-1.7,2.1-3.5,3.1-5.2,1.1-1.7,2.2-3.5,3.3-5.3,2.2-3.6,4.6-7.1,7-10.8,2.5-3.6,5-7.2,7.6-10.9,2.7-3.6,5.3-7.3,8.2-10.9,1.4-1.8,2.8-3.6,4.3-5.4,1.5-1.8,3-3.5,4.5-5.3,2.9-3.6,6.1-7,9.2-10.5,1.5-1.8,3.1-3.4,4.8-5.1,1.6-1.7,3.2-3.4,4.8-5,3.3-3.3,6.6-6.5,9.9-9.7,3.4-3,6.8-6.2,10.2-9.1,3.5-2.8,6.8-5.8,10.3-8.5,3.5-2.6,6.9-5.3,10.3-7.8,3.5-2.4,6.8-4.8,10.2-7,3.4-2.1,6.7-4.2,9.9-6.2,3.2-1.9,6.5-3.7,9.5-5.4,3-1.8,6-3.2,8.9-4.7,2.9-1.4,5.5-2.9,8.1-4,5.2-2.3,9.8-4.4,13.6-5.9,3-1.1,5.4-2.1,7.3-2.8,9.4-41,17.4-76.2,22.6-98.8,2.8-12,6.7-27.8,11.4-45.9-2.2.7-4.8,1.6-7.7,2.5-2.6.9-5.5,1.8-8.6,2.9s-6.4,2.3-10,3.6c-3.6,1.3-7.4,2.6-11.4,4.1-4,1.6-8.1,3.2-12.5,4.9-2.2.9-4.4,1.7-6.7,2.6s-4.5,1.9-6.8,2.9c-4.6,2-9.4,4-14.4,6.2-4.9,2.3-9.9,4.6-15,7-1.3.6-2.6,1.2-3.9,1.8-1.3.6-2.5,1.3-3.8,1.9-2.6,1.3-5.2,2.6-7.8,3.9-2.6,1.3-5.3,2.6-7.9,4-2.6,1.4-5.2,2.8-7.9,4.3-2.6,1.4-5.3,2.9-8,4.3-2.6,1.5-5.3,3.1-7.9,4.6-2.6,1.5-5.3,3.1-8,4.7-2.6,1.6-5.3,3.3-7.9,4.9-2.6,1.7-5.3,3.3-7.9,5l-7.8,5.2c-10.4,6.9-20.5,14.3-30.2,21.8-2.4,1.9-4.8,3.8-7.2,5.7-2.4,1.9-4.8,3.8-7,5.8-4.6,3.9-9.2,7.7-13.4,11.7-8.8,7.8-16.8,15.8-24.2,23.5-7.4,7.8-14.1,15.4-20,22.7-5.9,7.3-11.1,14.1-15.4,20.4-4.3,6.3-7.9,11.8-10.7,16.6-5.6,9.4-8.1,15.2-8.1,15.2,0,0,2.4-5.8,7.9-15.3,2.7-4.8,6.3-10.4,10.5-16.7,4.2-6.3,9.4-13.2,15.2-20.6,5.8-7.4,12.5-15.1,19.8-23,7.4-7.8,15.3-16,24-23.9,4.2-4.1,8.8-7.9,13.4-11.9,2.2-2,4.7-3.9,7-5.8,2.4-1.9,4.7-3.9,7.1-5.8,9.7-7.6,19.7-15.2,30.1-22.2l7.8-5.3c2.6-1.8,5.3-3.4,7.9-5.1,2.6-1.7,5.3-3.4,7.9-5,2.7-1.6,5.3-3.2,8-4.8s5.3-3.2,7.9-4.7c2.7-1.5,5.3-3,8-4.5,2.6-1.5,5.3-2.9,7.9-4.4,2.6-1.5,5.3-2.8,7.9-4.1,2.6-1.4,5.2-2.7,7.8-4,1.3-.7,2.6-1.3,3.8-2,1.3-.6,2.6-1.2,3.8-1.9,5.1-2.5,10.1-4.8,15-7.2,4.9-2.2,9.7-4.3,14.4-6.4,2.3-1,4.6-2.1,6.9-3,2.3-.9,4.5-1.8,6.7-2.7,4.4-1.8,8.5-3.5,12.5-5.1,4-1.6,7.8-2.9,11.4-4.3,3.6-1.3,6.9-2.6,10-3.8,3.1-1.2,6-2.1,8.6-3,4.3-1.5,7.8-2.7,10.5-3.6,10-38.1,23.2-85.8,37.1-131.8-3.5.2-8.7.4-15.3.7-1.6,0-3.4.1-5.2.2-1.8.1-3.7.3-5.6.5-3.9.3-8.2.7-12.7,1-2.3.2-4.6.3-7,.6-2.4.3-4.9.6-7.4.9-5.1.6-10.5,1.2-16,1.9-5.6.9-11.3,1.8-17.3,2.7-1.5.2-3,.5-4.5.7-1.5.3-3,.6-4.6.9-3.1.6-6.2,1.2-9.4,1.8-3.2.6-6.4,1.2-9.6,1.9-3.2.7-6.5,1.5-9.8,2.2-3.3.7-6.6,1.5-10,2.3-3.4.8-6.7,1.7-10.1,2.6-3.4.9-6.8,1.8-10.3,2.7-3.5.9-6.9,2-10.4,3-3.5,1-7,2-10.5,3.1-3.5,1-7,2.3-10.5,3.4-3.5,1.2-7,2.3-10.6,3.5-3.5,1.3-7,2.5-10.5,3.8-3.5,1.3-7,2.5-10.5,3.9l-10.5,4.1c-7,2.7-13.9,5.8-20.7,8.7-3.5,1.4-6.8,3.1-10.2,4.6-3.4,1.6-6.7,3.1-10.1,4.7-13.3,6.5-26.3,13.1-38.5,20-12.3,6.8-23.9,13.9-34.9,20.8-10.9,7-21,13.8-30.1,20.4-9.1,6.6-17.4,12.8-24.5,18.6-7.2,5.7-13.3,10.9-18.2,15.2-9.9,8.7-15.1,14.1-15.1,14.1,0,0,5.2-5.5,15-14.2,4.9-4.4,10.9-9.6,18.1-15.4,7.1-5.8,15.3-12.1,24.4-18.8,9.1-6.7,19.1-13.6,30-20.7,10.9-7,22.4-14.2,34.7-21.2,12.2-7.1,25.2-13.8,38.4-20.4,3.4-1.6,6.7-3.2,10.1-4.8,3.4-1.6,6.7-3.2,10.2-4.7,6.9-3,13.7-6.2,20.7-8.9l10.5-4.3c3.5-1.4,7-2.7,10.5-4,3.5-1.3,7-2.6,10.5-3.9,3.5-1.2,7.1-2.4,10.6-3.6,3.5-1.2,7-2.4,10.5-3.5,3.5-1.1,7-2.1,10.5-3.2,3.5-1,6.9-2.2,10.4-3.1,3.5-.9,6.9-1.9,10.3-2.8,3.4-.9,6.8-1.9,10.1-2.7,3.4-.8,6.7-1.6,10-2.4s6.6-1.5,9.8-2.3c3.3-.7,6.5-1.3,9.6-2,3.2-.6,6.3-1.3,9.4-1.9,1.5-.3,3.1-.6,4.6-.9,1.5-.2,3-.5,4.5-.8,6-1,11.8-1.9,17.4-2.9,5.6-.8,11-1.4,16.1-2.1,2.6-.3,5-.6,7.5-1,2.4-.3,4.8-.5,7.1-.7,4.6-.4,8.9-.8,12.8-1.2,2-.2,3.9-.4,5.7-.5,1.8-.1,3.5-.2,5.2-.3,7.7-.4,13.5-.7,17-.9,8-26.4,16.2-52,24.1-74.7-3.6-.2-9-.6-16-1-6.8-.4-15-.8-24.4-1.3-9.4-.5-20-.9-31.6-1.5-5.8-.3-11.8-.4-18.1-.7-6.2-.2-12.7-.5-19.4-.6-6.6-.2-13.5-.3-20.5-.5-7-.1-14.1-.2-21.4-.3-7.2,0-14.6,0-22.1-.1-7.5,0-15,0-22.6.1-7.6.1-15.3.3-23,.4-7.7.3-15.4.4-23.2.8-15.5.6-30.9,1.6-46.1,2.8-15.1,1.4-30.1,3-44.3,5.4-14.2,2.5-27.6,6.7-40.1,11.2-12.5,4.6-24,9.5-34.5,14.5-21,9.9-37.9,19.4-49.5,26.3-11.7,6.9-18.1,11.2-18.1,11.2,0,0,6.4-4.4,18-11.4,11.6-7,28.3-16.8,49.3-26.9,10.5-5.1,22-10.2,34.4-15,12.5-4.7,25.9-9.1,40.3-11.8,14.4-2.6,29.3-4.4,44.4-6,15.2-1.4,30.7-2.6,46.1-3.4,7.7-.5,15.5-.7,23.2-1.1,7.7-.2,15.4-.5,23-.7,7.6-.1,15.2-.3,22.7-.4,7.5,0,14.9-.1,22.1-.2,7.3,0,14.4,0,21.4,0,7,0,13.8.2,20.5.2,6.7,0,13.1.2,19.4.4,6.3.1,12.3.2,18.1.4,11.6.4,22.3.7,31.7,1.1,9.4.4,17.7.7,24.4,1,8.2.4,14.2.7,17.7.9,3.2-9.1,6.3-17.6,9.3-25.5-2.1-.9-4.7-1.9-7.8-3.3-4.2-1.7-9.2-4-15-6.5-5.8-2.6-12.3-5.5-19.3-8.9-3.5-1.7-7.2-3.4-11-5.2-3.8-1.9-7.7-3.8-11.7-5.7-8-4-16.4-8.3-25-12.8-17.2-9.1-35.5-18.8-53.9-28.5-9.2-4.8-18.4-9.5-27.6-13.9-2.3-1.1-4.6-2.2-6.9-3.3-2.3-1.1-4.6-2.1-6.9-3.1-4.5-2.1-9.1-4-13.6-5.8-9-3.5-18-6.5-26.5-9-8.5-2.5-16.7-4.5-24.3-6.2-15.2-3.3-28-5.2-37.1-6.2-9-1.1-14.2-1.3-14.2-1.3,0,0,5.2.2,14.2,1.2,9,1,21.9,2.7,37.1,5.9,7.6,1.6,15.8,3.5,24.4,5.9,8.6,2.4,17.5,5.3,26.7,8.8,4.5,1.8,9.1,3.6,13.7,5.7,2.3,1,4.6,2,6.9,3.1,2.3,1.1,4.6,2.1,6.9,3.2,9.3,4.3,18.5,9,27.8,13.7,18.4,9.5,36.9,19.1,54.1,28,8.7,4.4,17.1,8.6,25.1,12.5,4,1.9,7.9,3.8,11.7,5.6,3.8,1.8,7.5,3.5,11,5.1,7.1,3.2,13.6,6.1,19.4,8.6,5.8,2.5,10.8,4.7,15,6.4,3.1,1.3,5.7,2.3,7.8,3.2.9-2.3,1.8-4.5,2.6-6.6-10-106-4.6-190.5-109.9-206.7-105.2-16.1-131.4,23-195.1,48.4-63.8,25.3-67.6-7.7-139.8,85.3C34.4,230.4,22.1,298,14.4,345.6,6.8,393.3,0,503,0,503c0,0,57.5-72.9,106.6-119,58,28.2,148.4-57.1,203.7-49.4,55.3,7.7,69-45.1,42.2-34.4-26.9,10.8-186.7,44.6-245.8,83.7C47.5,423.2-6.3,459.3.6,519.3c6.9,59.9,29.3,158.4,22.2,129.4-4-19.2,35,102.4,38.8,105.1,2.5,1.7,55.9-97.5,146.6-175.1,90.7-77.6,139.8-106.7,179.7-109.7s29.1-63.4,11.4-41.9c-17.7,21.5-149.8,81.4-201.3,132.9-51.5,51.5-105.2,109.1-121.4,127.5-16.1,18.4-37.6,67.6,24.6,135.2,62.2,67.6,130.6,136,166.7,172.9,36.1,36.9,90.6,73,90.6,73,0,0,35.3-24.6,149-60.7,113.7-36.1,117.5-48.4,126.8-86,9.2-37.6,10-126-18.4-200.5-28.4-74.5-42.2,96.6-3,112.8s-72.7,63.9-47.3,119.2c25.3,55.3,127.9-48.3,127.9-48.3,0,0,50.7-23,132.9-128.3s133.7-189.8,145.2-325.7c11.5-136,11.1-184.4-35.3-222h0Z"/>
  </g>
</svg>